<svg xmlns="http://www.w3.org/2000/svg" viewBox="0 0 64 64" fill="none">
  <defs>
    <linearGradient id="wing" x1="0%" y1="0%" x2="100%" y2="100%">
      <stop offset="0%" stop-color="#f9a8d4"/>
      <stop offset="100%" stop-color="#c4b5fd"/>
    </linearGradient>
    <linearGradient id="dress" x1="0%" y1="0%" x2="0%" y2="100%">
      <stop offset="0%" stop-color="#b85c75"/>
      <stop offset="100%" stop-color="#8b5cf6"/>
    </linearGradient>
    <linearGradient id="glow" x1="50%" y1="0%" x2="50%" y2="100%">
      <stop offset="0%" stop-color="#fde68a" stop-opacity="0.9"/>
      <stop offset="100%" stop-color="#f9a8d4" stop-opacity="0"/>
    </linearGradient>
  </defs>
  <circle cx="32" cy="32" r="30" fill="#fdf8f9"/>
  <ellipse cx="32" cy="38" rx="18" ry="6" fill="#f9a8d4" opacity="0.25"/>
  <path d="M12 28c6-10 16-14 20-14s14 4 20 14c-8 2-14 2-20 2s-12 0-20-2z" fill="url(#wing)" opacity="0.85"/>
  <path d="M52 28c-6-10-16-14-20-14S18 18 12 28c8 2 14 2 20 2s12 0 20-2z" fill="url(#wing)" opacity="0.7"/>
  <ellipse cx="32" cy="22" rx="7" ry="8" fill="#fecdd3"/>
  <path d="M22 18c2-6 6-8 10-8s8 2 10 8c-3 1-6 1-10 1s-7 0-10-1z" fill="#2d1f28"/>
  <circle cx="29" cy="22" r="1.2" fill="#2d1f28"/>
  <circle cx="35" cy="22" r="1.2" fill="#2d1f28"/>
  <path d="M30 25c1 1 3 1 4 0" stroke="#b85c75" stroke-width="1" stroke-linecap="round"/>
  <path d="M28 34c2 8 4 12 4 16h0c0-4 2-8 4-16" fill="url(#dress)"/>
  <path d="M26 36h12l-2 10H28L26 36z" fill="#fce7f3" opacity="0.6"/>
  <line x1="40" y1="30" x2="50" y2="18" stroke="#c4b5fd" stroke-width="1.5" stroke-linecap="round"/>
  <circle cx="51" cy="17" r="3" fill="url(#glow)"/>
  <path d="M50 14l1 6 4-4-6 1 6 1-4-4-1 6-1-6-4 4 6-1-6-1 4 4z" fill="#fde68a"/>
  <circle cx="14" cy="14" r="1.5" fill="#f9a8d4" opacity="0.8"/>
  <circle cx="50" cy="10" r="1" fill="#c4b5fd"/>
  <circle cx="10" cy="22" r="1" fill="#fda4af"/>
</svg>
